<?xml version="1.0" standalone="no"?>
<!DOCTYPE svg PUBLIC "-//W3C//DTD SVG 20010904//EN"
 "http://www.w3.org/TR/2001/REC-SVG-20010904/DTD/svg10.dtd">
<svg version="1.0" xmlns="http://www.w3.org/2000/svg"
 width="300.000000pt" height="300.000000pt" viewBox="0 0 300.000000 300.000000"
 preserveAspectRatio="xMidYMid meet">
<metadata>
Created by potrace 1.14, written by Peter Selinger 2001-2017
</metadata>
<g transform="translate(0.000000,300.000000) scale(0.100000,-0.100000)"
fill="#000000" stroke="none">
<path d="M0 2471 c0 -343 4 -532 10 -536 6 -3 10 -11 10 -16 0 -6 -4 -7 -10
-4 -7 4 -10 -64 -10 -197 0 -237 -4 -227 108 -232 37 -2 79 -6 95 -11 16 -4
27 -3 27 3 0 5 -6 10 -12 9 -32 -1 -46 4 -52 19 -10 27 0 28 49 5 32 -15 50
-31 60 -54 7 -18 23 -44 35 -59 12 -16 18 -28 15 -28 -4 0 -2 -7 5 -15 7 -9 8
-15 2 -15 -5 0 -12 7 -16 15 -3 8 -10 15 -17 15 -6 0 -9 -7 -5 -15 6 -17 -2
-19 -23 -6 -11 7 -10 10 4 18 16 10 16 11 0 37 -10 14 -26 26 -36 26 -17 0
-47 10 -95 32 -12 6 -31 7 -43 3 -13 -4 -21 -2 -21 5 0 8 -6 8 -21 0 -16 -9
-25 -8 -40 6 -19 17 -19 10 -19 -409 l0 -427 23 0 c17 0 19 -2 7 -9 -8 -6 -18
-7 -22 -5 -5 3 -8 -69 -7 -159 1 -137 4 -165 15 -160 9 3 14 -2 14 -12 0 -11
-5 -15 -15 -11 -14 5 -15 -5 -13 -66 l3 -72 30 -3 c17 -1 39 -4 50 -5 17 -3
19 2 17 26 -4 27 -2 28 25 22 15 -4 30 -12 31 -17 2 -5 11 -9 20 -9 11 0 21
-13 28 -35 6 -19 7 -32 2 -29 -8 5 -9 4 -13 -35 -2 -23 -2 -24 11 -6 8 10 14
14 14 7 0 -6 7 -9 15 -6 8 4 15 3 15 0 0 -4 -24 -17 -53 -30 l-52 -24 937 -1
c732 0 938 2 942 12 5 9 7 9 12 0 4 -10 111 -13 485 -13 l479 0 0 1110 c0 791
-3 1110 -11 1110 -6 0 -13 -9 -16 -19 -3 -11 -10 -22 -17 -24 -8 -3 -11 10
-10 42 3 62 3 61 15 61 5 0 7 -5 4 -10 -8 -13 14 -42 26 -34 5 3 9 31 9 62 0
43 -3 53 -11 42 -8 -11 -9 -9 -3 10 4 14 9 72 11 129 3 79 1 106 -9 112 -10 7
-10 9 0 9 19 0 14 48 -7 60 -21 11 -19 41 5 61 11 9 14 43 14 145 l0 134 -372
-2 c-348 -3 -373 -4 -372 -20 1 -10 -2 -18 -6 -18 -5 0 -17 -3 -27 -6 -16 -5
-17 -5 -1 6 9 6 15 17 12 25 -5 13 -61 15 -390 15 -370 0 -384 -1 -384 -19 0
-10 -6 -21 -14 -24 -7 -3 -16 -15 -19 -26 -3 -12 -1 -19 4 -15 20 12 7 -9 -16
-28 -16 -12 -25 -30 -25 -47 0 -15 -8 -35 -18 -44 -17 -16 -20 -15 -41 6 -13
15 -19 30 -15 40 3 10 1 17 -6 17 -6 0 -8 -4 -5 -10 3 -5 0 -10 -8 -10 -10 0
-13 7 -10 20 4 14 -1 26 -13 35 -15 11 -17 16 -6 26 6 7 12 10 12 6 0 -4 9 -3
20 3 23 12 25 8 8 -21 -11 -17 -10 -22 6 -35 11 -8 23 -14 27 -14 12 0 21 52
10 63 -6 6 -6 19 -1 33 7 17 6 23 -3 21 -7 -1 -11 4 -10 11 2 9 -20 12 -87 12
-84 0 -90 -1 -90 -20 0 -27 -40 -43 -59 -25 -12 12 -12 17 -1 29 11 14 -42 16
-544 16 l-556 0 0 -529z m1514 427 c-9 -33 -13 -34 -28 -12 -13 17 -12 20 2
26 29 11 34 9 26 -14z m1146 -38 c0 -5 -4 -10 -10 -10 -5 0 -10 5 -10 10 0 6
5 10 10 10 6 0 10 -4 10 -10z m-850 -80 c0 -21 -15 -27 -25 -10 -7 12 2 30 16
30 5 0 9 -9 9 -20z m-610 0 c0 -5 -7 -15 -15 -23 -7 -8 -17 -26 -21 -41 -3
-14 -10 -26 -15 -26 -5 0 -7 11 -3 25 3 14 1 32 -5 39 -10 11 -9 16 3 23 21
12 56 14 56 3z m410 5 c0 -3 -10 -16 -22 -30 -23 -26 -38 -25 -38 5 0 17 7 20
53 29 4 0 7 -1 7 -4z m100 -15 c0 -5 -10 -10 -22 -9 -22 0 -22 1 -3 9 11 5 21
9 23 9 1 1 2 -3 2 -9z m-635 -8 c14 -10 17 -32 4 -32 -6 0 -8 -19 -5 -52 3
-36 0 -59 -9 -72 -16 -22 -38 -12 -30 14 4 12 0 22 -11 28 -16 9 -15 11 5 22
16 8 22 20 21 38 -4 60 1 72 25 54z m582 -23 c2 -17 -1 -18 -13 -8 -13 11 -10
20 11 29 1 0 1 -9 2 -21z m-227 -40 c-14 -4 -20 -7 -14 -8 7 -1 15 -8 18 -17
4 -12 1 -14 -13 -9 -32 10 -36 -15 -6 -41 16 -13 32 -24 38 -24 5 0 6 -12 3
-26 -5 -20 -3 -27 14 -31 26 -7 25 -13 -11 -41 -20 -16 -27 -19 -23 -8 8 22
-12 20 -66 -6 -25 -11 -56 -22 -69 -24 -34 -4 -45 -19 -27 -36 9 -10 12 -24 9
-38 -5 -20 -3 -22 13 -15 10 4 26 8 35 9 9 1 24 10 33 19 20 19 81 23 92 5 4
-6 -1 -17 -11 -25 -18 -12 -17 -13 8 -13 15 0 27 -4 27 -10 0 -15 29 0 33 18
3 13 7 10 17 -10 7 -16 19 -28 27 -28 7 0 13 -5 13 -11 0 -6 7 -17 15 -25 20
-21 19 -36 -5 -64 -23 -26 -25 -37 -8 -42 15 -5 -38 -60 -74 -75 -20 -9 -25
-17 -21 -33 4 -13 0 -26 -8 -31 -11 -7 -11 -9 -1 -9 8 0 16 9 19 20 9 33 23
23 17 -12 -4 -25 -3 -29 5 -18 8 12 11 12 11 1 0 -7 6 -11 15 -8 8 4 17 2 21
-4 4 -6 11 -6 20 2 10 8 14 8 14 0 0 -6 -4 -11 -8 -11 -5 0 -14 -11 -20 -25
-10 -22 -17 -25 -44 -20 -21 3 -40 0 -52 -9 -16 -13 -17 -19 -7 -47 14 -42 14
-47 -3 -24 -13 18 -13 17 -11 -9 4 -30 35 -72 35 -47 0 11 3 11 15 1 9 -7 14
-19 11 -27 -3 -7 -1 -13 5 -13 6 0 8 -4 4 -9 -3 -5 0 -13 6 -16 5 -4 8 -14 5
-22 -4 -9 -2 -11 6 -7 8 5 9 2 5 -9 -7 -20 8 -23 17 -4 3 6 4 0 1 -15 -4 -21
-1 -28 10 -28 8 0 15 -8 15 -18 0 -44 54 -56 82 -19 9 12 28 35 40 51 l24 28
28 -42 c30 -46 73 -90 88 -90 4 0 6 -10 3 -22 -7 -30 11 -59 24 -39 12 19 30
5 24 -19 -4 -14 0 -20 10 -20 9 0 20 -6 24 -14 4 -8 15 -15 23 -17 22 -5 70
10 70 21 0 16 32 12 52 -7 18 -16 21 -15 54 17 19 19 46 46 60 60 l25 25 -11
-28 c-13 -36 -13 -37 4 -37 8 0 16 -7 20 -15 6 -16 34 -11 51 10 6 7 21 15 34
17 14 1 25 10 27 19 3 28 28 71 45 82 12 7 26 6 50 -3 l32 -14 -29 -9 c-44
-14 -56 -27 -43 -43 6 -7 8 -18 4 -24 -3 -6 3 -10 17 -10 13 0 29 -4 37 -9 10
-7 25 -1 48 16 26 20 31 28 22 39 -7 8 -17 13 -23 12 -6 -2 -11 2 -11 7 0 6 5
10 12 10 6 0 15 4 19 8 15 14 42 7 47 -14 3 -12 10 -18 15 -15 5 3 8 -8 6 -25
-5 -41 -59 -89 -100 -89 -33 0 -60 -22 -66 -55 -2 -11 -13 -24 -25 -30 -12 -5
-23 -18 -25 -29 -2 -11 -9 -22 -17 -24 -10 -3 -12 0 -8 11 4 11 2 14 -8 11 -8
-3 -14 -9 -13 -12 3 -27 -5 -42 -22 -42 -11 0 -20 5 -20 10 0 14 -27 13 -36
-2 -5 -8 -2 -9 9 -5 24 9 21 0 -9 -28 -14 -13 -26 -33 -27 -44 -1 -24 -17 -29
-17 -6 0 8 -4 15 -10 15 -5 0 -10 9 -10 21 0 11 -4 17 -10 14 -5 -3 -10 1 -10
9 0 8 8 20 18 25 19 12 8 14 -25 5 -13 -4 -21 -10 -18 -14 2 -4 -6 -5 -20 -3
-13 3 -39 -2 -57 -11 -20 -10 -43 -14 -60 -11 -16 4 -28 2 -28 -4 0 -5 -9 -13
-21 -16 -11 -4 -18 -9 -15 -12 2 -3 1 -16 -4 -29 -8 -21 -7 -24 15 -24 25 0
33 -14 15 -25 -30 -18 49 -42 81 -24 34 18 41 5 15 -26 -14 -17 -22 -31 -16
-33 5 -2 5 -13 -1 -28 -12 -32 -11 -43 1 -24 7 11 10 12 10 2 0 -10 4 -9 16 3
13 12 19 14 28 4 8 -8 8 -13 -1 -16 -7 -3 -13 -10 -13 -16 0 -7 -25 -36 -55
-66 -30 -29 -55 -57 -55 -62 0 -5 -7 -9 -15 -9 -8 0 -15 -7 -15 -15 0 -8 -6
-15 -12 -15 -9 0 -9 -3 1 -9 8 -5 20 -7 28 -4 7 3 13 0 13 -7 0 -9 12 -11 42
-6 50 8 48 5 -10 -18 -27 -10 -41 -12 -36 -5 5 9 -4 11 -33 7 -27 -4 -46 -1
-54 7 -12 12 -17 11 -33 0 -18 -14 -18 -14 0 -14 11 1 32 -3 49 -8 29 -9 29
-9 -20 -22 -28 -7 -61 -17 -75 -21 l-25 -8 25 -2 c23 -1 22 -3 -10 -15 -29
-11 -31 -14 -11 -14 18 -1 21 -4 13 -14 -8 -10 -5 -12 16 -11 36 1 62 -6 62
-18 0 -6 -7 -8 -15 -4 -19 7 -47 -3 -39 -15 3 -5 -2 -9 -11 -9 -9 0 -23 -7
-31 -15 -9 -9 -11 -15 -4 -15 6 0 8 -4 5 -10 -3 -5 -12 -10 -20 -10 -19 0 -26
179 -7 199 7 7 10 21 7 30 -7 18 -9 33 -24 180 -6 57 -17 114 -25 126 -8 13
-12 26 -8 30 4 4 7 12 7 18 0 7 8 11 18 9 10 -2 17 3 17 13 0 9 4 13 10 10 11
-7 22 30 18 64 -3 21 3 26 42 36 44 12 44 13 20 23 -24 10 -24 11 10 12 l35 2
-35 10 c-19 6 -51 16 -70 24 -34 12 -34 13 -7 13 15 1 27 5 27 10 0 13 -45 19
-67 9 -17 -9 -17 -8 -1 5 10 8 14 18 10 22 -4 4 5 6 20 3 15 -3 25 -1 22 3 -3
5 -34 9 -70 9 -45 0 -75 6 -101 20 -52 28 -104 26 -131 -3 -45 -48 -57 -165
-22 -210 11 -14 20 -29 20 -34 0 -14 -40 -44 -85 -64 -23 -10 -47 -24 -52 -31
-6 -7 -18 -69 -27 -138 -10 -68 -21 -129 -25 -135 -17 -23 -19 -45 -5 -60 13
-12 13 -27 4 -97 -14 -108 -20 -134 -28 -122 -4 6 -18 11 -32 11 -49 0 -60 3
-60 14 0 7 10 9 25 7 14 -3 25 -1 25 6 0 7 3 6 8 -2 9 -13 42 -6 42 9 0 14
-20 11 -21 -3 0 -10 -2 -10 -6 0 -2 6 -12 12 -21 13 -13 0 -12 3 5 11 l22 11
-27 21 c-14 11 -31 20 -37 18 -7 -1 -22 9 -35 23 -13 14 -29 25 -37 25 -7 0
-13 7 -13 15 0 8 -5 15 -11 15 -6 0 -8 7 -5 16 10 25 -12 46 -35 33 -13 -6
-19 -6 -19 0 0 6 8 15 19 20 10 6 21 20 24 31 7 27 -40 80 -71 80 -22 0 -24 3
-19 29 5 24 2 31 -13 36 -21 7 -23 13 -20 58 1 22 -4 29 -29 38 -17 6 -31 16
-31 21 0 6 -6 5 -15 -2 -12 -10 -19 -8 -39 11 -23 22 -24 25 -9 42 15 16 15
19 1 34 -22 21 -78 25 -106 6 -27 -17 -57 -10 -48 12 5 14 -10 30 -29 30 -5 0
-10 5 -10 10 -1 11 -25 57 -34 65 -3 3 -13 19 -21 35 -18 36 -35 55 -49 55 -6
0 -11 5 -11 11 0 6 -10 19 -21 28 -21 17 -21 18 -4 44 12 18 26 27 44 27 31 0
52 -16 45 -35 -3 -7 4 -15 15 -18 12 -3 21 -13 21 -22 0 -14 6 -16 30 -11 22
4 35 1 49 -13 10 -10 33 -21 52 -25 18 -3 52 -15 74 -25 67 -30 190 -58 179
-40 -3 5 -10 7 -15 3 -6 -3 -5 3 3 15 14 22 34 30 22 9 -4 -7 2 -5 12 5 16 15
17 19 4 27 -8 5 -33 12 -55 15 -52 9 -134 35 -140 45 -3 5 7 4 23 -2 31 -12
122 -2 122 13 0 5 -2 9 -4 9 -2 0 -11 3 -20 6 -11 4 -16 1 -16 -10 0 -24 -47
-20 -130 10 -49 18 -67 30 -58 35 19 12 30 11 22 -2 -4 -7 2 -7 17 1 33 17 34
19 13 18 -33 -3 -95 23 -87 35 4 7 -2 5 -13 -3 -10 -8 -21 -16 -23 -17 -2 -1
7 -7 20 -13 19 -8 14 -9 -24 -5 -48 5 -100 24 -67 25 27 1 45 17 33 32 -6 7
-13 25 -17 41 -3 15 -13 27 -20 27 -24 0 -25 27 -2 49 12 12 28 21 34 21 7 0
12 5 12 10 0 6 -7 10 -15 10 -8 0 -15 3 -15 8 0 4 -3 17 -6 28 -4 17 0 23 20
28 14 3 26 12 26 20 0 15 -27 40 -52 49 -18 7 -25 37 -9 37 16 0 70 -50 76
-71 4 -12 -2 -33 -16 -56 -13 -20 -17 -33 -11 -29 15 9 16 -18 2 -45 -13 -24
10 -63 49 -82 15 -7 27 -22 29 -37 5 -30 26 -44 70 -45 39 -2 40 7 6 34 -22
17 -23 21 -9 21 26 0 55 -29 55 -54 0 -18 11 -25 58 -39 32 -9 67 -17 79 -17
11 0 37 -7 57 -15 33 -14 38 -14 54 2 10 10 23 36 30 58 28 99 36 119 39 108
3 -7 12 -13 21 -12 11 0 12 2 5 6 -7 2 -13 9 -13 14 0 6 4 8 9 5 10 -6 61 16
61 27 0 4 8 7 19 7 10 0 24 7 31 16 11 12 11 15 0 12 -7 -2 -15 3 -18 11 -3
10 0 12 12 8 9 -4 16 -1 17 6 0 7 2 29 4 51 5 49 -9 76 -40 76 -13 0 -27 5
-30 10 -3 6 -1 10 6 10 8 0 8 4 -2 16 -7 8 -21 13 -31 11 -10 -3 -18 0 -19 6
-1 7 -7 -8 -14 -33 l-13 -45 -2 40 c-2 39 -3 39 -10 10 -7 -27 -8 -25 -9 17 0
26 -6 50 -12 54 -6 3 -9 21 -7 39 2 19 0 31 -6 28 -5 -4 -6 5 -2 21 4 15 2 26
-4 26 -5 0 -10 6 -10 14 0 8 -7 22 -16 30 -8 9 -12 16 -8 16 4 0 -1 9 -11 20
-10 11 -14 20 -10 20 4 0 0 9 -11 21 -15 16 -16 22 -5 28 8 5 10 14 6 21 -4 7
1 13 14 17 11 3 19 9 16 13 -3 4 2 14 11 21 20 16 58 23 49 9 -3 -6 0 -16 8
-24 12 -12 14 -8 15 31 0 39 -3 47 -29 62 -25 16 -27 20 -15 30 8 7 24 10 36
6 13 -4 20 -2 20 6 0 7 3 9 6 6 4 -4 1 -14 -7 -23 -13 -16 -11 -17 12 -12 22
4 25 1 22 -13 -3 -10 -2 -31 2 -46 l7 -28 19 24 c12 15 19 37 18 55 -5 70 0
81 34 91 25 8 31 15 30 33 -2 13 1 21 7 17 6 -3 7 1 3 10 -4 11 -8 13 -13 5
-10 -16 -32 13 -24 34 3 9 10 14 14 11 4 -3 13 2 20 10 7 8 16 12 21 9 5 -3 5
5 0 17 -12 33 -28 34 -45 2 l-15 -28 3 31 c4 42 38 78 64 70 11 -4 23 -3 26 2
2 4 22 6 43 3 35 -4 36 -5 13 -12z m45 -29 c3 -6 -1 -7 -9 -4 -18 7 -21 14 -7
14 6 0 13 -4 16 -10z m289 -45 c4 -16 1 -34 -8 -46 -14 -21 -14 -21 -27 3 -15
26 -13 49 4 60 19 12 24 9 31 -17z m-1174 -80 c9 -11 7 -19 -9 -36 -18 -20
-21 -20 -21 -5 0 9 -4 14 -10 11 -5 -3 -10 3 -10 14 0 10 -6 21 -12 24 -7 2 1
4 19 5 17 0 37 -6 43 -13z m2050 -112 c0 -18 -3 -17 -31 13 l-24 26 28 -13
c15 -7 27 -18 27 -26z m-835 -43 c3 -5 1 -10 -4 -10 -6 0 -11 5 -11 10 0 6 2
10 4 10 3 0 8 -4 11 -10z m-175 -62 c0 -4 -4 -8 -10 -8 -5 0 -10 4 -10 9 0 5
-3 18 -6 28 -5 16 -4 16 10 -1 9 -11 16 -23 16 -28z m-9 -41 c-10 -9 -11 -8
-5 6 3 10 9 15 12 12 3 -3 0 -11 -7 -18z m-846 -7 c3 -5 1 -10 -4 -10 -6 0
-11 5 -11 10 0 6 2 10 4 10 3 0 8 -4 11 -10z m1648 -35 c3 -18 -2 -37 -11 -48
-9 -10 -15 -31 -14 -47 1 -19 -6 -38 -23 -56 -17 -18 -25 -38 -25 -61 0 -39
17 -76 30 -68 5 3 12 1 15 -5 6 -10 14 -130 9 -130 -18 0 -34 17 -34 37 0 13
-4 21 -10 18 -5 -3 -10 0 -11 7 0 7 -7 -9 -14 -37 -8 -33 -13 -42 -14 -25 -1
25 -21 65 -21 44 0 -6 -13 -9 -32 -6 l-32 5 26 22 c17 15 23 27 17 36 -14 27
-18 99 -5 112 7 6 15 20 19 29 4 11 12 15 22 12 10 -4 15 0 15 15 0 12 5 21
10 21 6 0 10 20 10 45 0 25 4 45 9 45 5 0 19 16 30 36 25 41 28 41 34 -1z
m410 14 c-4 -16 -8 -17 -14 -7 -13 19 -11 28 5 28 9 0 12 -7 9 -21z m-1893
-13 c0 -2 -6 -16 -14 -31 -13 -26 -14 -26 -21 -6 -8 25 1 41 21 41 8 0 14 -2
14 -4z m1957 -152 c-12 -12 -37 5 -30 21 5 15 7 15 21 1 9 -9 13 -18 9 -22z
m-41 9 c-4 -25 -26 -28 -26 -4 0 12 6 21 14 21 8 0 13 -8 12 -17z m-61 -53
c-4 -6 -2 -17 5 -25 8 -10 7 -16 -7 -27 -22 -16 -62 -64 -46 -55 21 13 25 -12
6 -43 -9 -16 -21 -30 -25 -30 -14 0 -8 16 12 35 11 10 20 22 20 27 0 5 -9 4
-20 -2 -11 -6 -20 -8 -20 -5 0 9 -64 -26 -83 -46 -10 -11 -15 -24 -12 -29 4
-6 1 -9 -6 -8 -8 2 -13 -13 -15 -47 -1 -27 -3 -54 -4 -60 -8 -26 12 -44 41
-38 18 3 29 1 29 -6 0 -6 -5 -11 -12 -11 -7 0 -22 -12 -35 -27 -21 -26 -22
-27 -23 -7 0 12 -6 24 -14 27 -18 7 -46 63 -46 92 0 13 6 28 14 34 8 7 18 26
21 42 8 34 61 79 94 79 22 0 25 4 35 52 5 20 17 32 41 42 20 9 35 19 34 23 -3
16 1 23 12 23 5 0 7 -5 4 -10z m114 -12 c-9 -16 -14 -19 -17 -9 -2 7 2 17 9
22 20 13 21 11 8 -13z m-2395 -49 c11 9 15 7 20 -13 6 -26 -1 -56 -14 -56 -4
0 -18 19 -30 42 -16 30 -17 38 -6 29 12 -10 19 -11 30 -2z m1864 -14 c-3 -3
-9 2 -12 12 -6 14 -5 15 5 6 7 -7 10 -15 7 -18z m-2067 -18 c-13 -13 -26 -3
-16 12 3 6 11 8 17 5 6 -4 6 -10 -1 -17z m309 -12 c0 -8 -2 -15 -4 -15 -2 0
-6 7 -10 15 -3 8 -1 15 4 15 6 0 10 -7 10 -15z m1899 -30 c10 -11 25 -32 34
-47 17 -27 17 -27 -5 -19 -15 5 -24 18 -26 35 -2 14 -9 26 -17 26 -16 0 -28
28 -18 43 4 7 8 6 11 -3 3 -8 12 -24 21 -35z m324 14 c-4 -15 -8 -17 -14 -8
-8 14 -3 29 11 29 4 0 6 -9 3 -21z m-2323 -89 c6 0 8 -4 5 -10 -3 -5 -10 -10
-15 -10 -15 0 -40 31 -40 48 1 14 4 13 19 -5 11 -13 24 -23 31 -23z m415 11
c0 -16 -3 -27 -7 -24 -13 7 -7 53 6 53 1 0 1 -13 1 -29z m865 24 c0 -11 -53
-85 -61 -85 -14 0 -11 9 19 51 24 34 42 49 42 34z m250 -14 c0 -23 -16 -36
-25 -21 -9 14 1 40 15 40 5 0 10 -9 10 -19z m-910 -52 c0 -4 -7 -6 -15 -3 -8
4 -15 10 -15 15 0 4 7 6 15 3 8 -4 15 -10 15 -15z m-884 3 c17 -11 26 -82 10
-82 -20 0 -40 27 -26 35 5 3 10 10 10 14 0 14 -58 34 -80 28 -11 -3 -20 -1
-20 4 0 11 90 12 106 1z m-158 -44 c-6 -18 -28 -21 -28 -4 0 9 7 16 16 16 9 0
14 -5 12 -12z m866 -15 l15 -28 1 25 c0 20 2 22 10 10 5 -8 7 -24 3 -35 -12
-39 -11 -76 4 -71 7 3 13 1 13 -3 0 -13 -23 -19 -44 -11 -14 5 -16 9 -8 14 14
8 7 73 -9 91 -9 9 -12 35 -4 35 2 0 11 -12 19 -27z m1016 -33 c0 -21 -15 -27
-25 -10 -7 12 2 30 16 30 5 0 9 -9 9 -20z m-1652 -45 c-3 -3 -9 2 -12 12 -6
14 -5 15 5 6 7 -7 10 -15 7 -18z m2255 -60 c-3 -9 -8 -14 -10 -11 -3 3 -2 9 2
15 9 16 15 13 8 -4z m-2268 -4 c-3 -5 7 -11 21 -13 15 -2 32 -12 38 -23 6 -11
15 -23 20 -26 12 -9 -14 -23 -41 -22 -60 3 -77 5 -60 10 9 2 14 9 11 15 -5 8
3 9 25 5 42 -9 38 14 -5 28 -39 12 -41 15 -24 25 19 12 23 12 15 1z m235 -37
c0 -2 -7 -4 -15 -4 -8 0 -15 4 -15 10 0 5 7 7 15 4 8 -4 15 -8 15 -10z m1373
-29 c-3 -9 -8 -14 -10 -11 -3 3 -2 9 2 15 9 16 15 13 8 -4z m-1176 -53 c10 -6
1 -9 -28 -7 -24 0 -53 7 -64 14 -17 11 -13 12 28 7 27 -3 55 -10 64 -14z
m-287 -21 c0 -5 -7 -11 -15 -15 -9 -3 -15 0 -15 9 0 8 7 15 15 15 8 0 15 -4
15 -9z m443 -68 c-7 -2 -19 -2 -25 0 -7 3 -2 5 12 5 14 0 19 -2 13 -5z m-578
-83 c3 -6 -1 -7 -9 -4 -18 7 -21 14 -7 14 6 0 13 -4 16 -10z m-185 -30 c0 -5
-2 -10 -4 -10 -3 0 -8 5 -11 10 -3 6 -1 10 4 10 6 0 11 -4 11 -10z m2180 -10
c0 -5 -4 -10 -9 -10 -6 0 -13 5 -16 10 -3 6 1 10 9 10 9 0 16 -4 16 -10z
m-1863 -37 c17 -16 16 -38 -2 -53 -21 -17 -41 -7 -49 26 -10 39 21 55 51 27z
m177 -33 c20 0 31 -21 16 -30 -7 -4 -9 -13 -6 -19 12 -18 -26 -13 -62 9 -18
11 -39 20 -47 20 -29 0 -25 21 7 34 28 13 36 13 55 0 12 -8 29 -14 37 -14z
m1549 -28 c-10 -10 -20 -14 -22 -9 -2 5 3 13 10 18 24 15 30 10 12 -9z m-33
-12 c0 -5 -5 -10 -11 -10 -5 0 -7 -4 -4 -10 8 -13 -53 -72 -66 -65 -9 6 4 28
46 72 22 24 35 28 35 13z m192 -122 c-8 -8 -9 -4 -5 13 4 13 8 18 11 10 2 -7
-1 -18 -6 -23z m-1622 -188 c0 -5 -4 -10 -10 -10 -5 0 -10 5 -10 10 0 6 5 10
10 10 6 0 10 -4 10 -10z m2045 -20 c-3 -5 -12 -10 -18 -10 -7 0 -6 4 3 10 19
12 23 12 15 0z m85 -30 c0 -5 -7 -10 -16 -10 -8 0 -12 5 -9 10 3 6 10 10 16
10 5 0 9 -4 9 -10z m-1466 -57 c-9 -23 -22 -112 -32 -220 -9 -101 -19 -183
-22 -183 -3 0 -4 20 -2 44 3 38 1 45 -17 51 -29 9 -26 25 4 25 18 0 25 5 25
20 0 14 -7 20 -21 20 -20 0 -21 4 -16 53 3 28 14 74 26 100 12 27 21 53 21 58
0 10 41 69 47 69 2 0 -4 -17 -13 -37z m276 -1 c0 -15 -2 -15 -10 -2 -13 20
-13 33 0 25 6 -3 10 -14 10 -23z m245 -12 c-16 -4 -41 -8 -55 -8 l-25 0 25 8
c14 4 39 8 55 8 l30 0 -30 -8z m-1011 -31 c-7 -11 -41 -12 -48 0 -9 13 2 19
29 13 14 -2 22 -8 19 -13z m96 13 c0 -5 -13 -7 -30 -4 -16 2 -30 6 -30 8 0 2
14 4 30 4 17 0 30 -4 30 -8z m1860 -2 c0 -5 -4 -10 -9 -10 -6 0 -13 5 -16 10
-3 6 1 10 9 10 9 0 16 -4 16 -10z m-633 -16 c-3 -3 -12 -4 -19 -1 -8 3 -5 6 6
6 11 1 17 -2 13 -5z m-1122 -44 c3 -5 1 -10 -4 -10 -6 0 -11 5 -11 10 0 6 2
10 4 10 3 0 8 -4 11 -10z m-895 -16 c0 -2 -7 -4 -15 -4 -8 0 -15 4 -15 10 0 5
7 7 15 4 8 -4 15 -8 15 -10z m1705 6 c-3 -5 -16 -15 -28 -21 -22 -12 -22 -12
-3 10 19 21 43 30 31 11z m-1608 -20 c1 -16 -4 -20 -28 -20 -37 0 -37 13 -1
27 15 6 27 11 27 12 1 1 1 -8 2 -19z m778 10 c8 -13 -5 -13 -25 0 -13 8 -13
10 2 10 9 0 20 -4 23 -10z m100 -10 c-3 -5 -18 -9 -33 -9 l-27 1 30 8 c17 4
31 8 33 9 2 0 0 -3 -3 -9z m-415 -10 c0 -5 -7 -10 -16 -10 -8 0 -12 5 -9 10 3
6 10 10 16 10 5 0 9 -4 9 -10z m275 0 c-3 -5 -23 -9 -43 -9 l-37 2 40 7 c22 4
41 8 43 9 2 0 0 -3 -3 -9z m673 -45 c0 -16 -2 -15 -8 5 -11 34 -11 60 0 35 5
-11 8 -29 8 -40z m137 25 c-3 -5 -13 -10 -21 -10 -8 0 -12 5 -9 10 3 6 13 10
21 10 8 0 12 -4 9 -10z m111 -9 c-7 -11 -56 -21 -56 -10 0 6 13 11 53 18 5 0
6 -3 3 -8z m264 5 c0 -3 -4 -8 -10 -11 -5 -3 -10 -1 -10 4 0 6 5 11 10 11 6 0
10 -2 10 -4z m-165 -15 c-3 -6 -13 -7 -22 -4 -10 4 -14 2 -10 -4 4 -6 -5 -13
-23 -15 -31 -5 -37 1 -20 18 13 13 84 18 75 5z m-962 -18 c-13 -2 -23 -11 -23
-19 0 -8 -7 -14 -15 -14 -12 0 -12 3 2 20 10 11 27 19 38 19 18 -2 17 -2 -2
-6z m62 -13 c3 -5 -1 -10 -10 -10 -9 0 -13 -4 -10 -10 3 -5 2 -10 -3 -10 -15
0 -22 28 -9 34 19 7 25 7 32 -4z m35 0 c0 -5 -4 -10 -10 -10 -5 0 -10 5 -10
10 0 6 5 10 10 10 6 0 10 -4 10 -10z m40 6 c0 -3 -4 -8 -10 -11 -5 -3 -10 -1
-10 4 0 6 5 11 10 11 6 0 10 -2 10 -4z m27 -28 c-3 -8 -6 -5 -6 6 -1 11 2 17
5 13 3 -3 4 -12 1 -19z m616 15 c-7 -2 -21 -2 -30 0 -10 3 -4 5 12 5 17 0 24
-2 18 -5z m-768 -13 c3 -5 2 -10 -4 -10 -5 0 -13 5 -16 10 -3 6 -2 10 4 10 5
0 13 -4 16 -10z m652 -22 c-3 -8 -6 -5 -6 6 -1 11 2 17 5 13 3 -3 4 -12 1 -19z
m176 15 c-13 -2 -35 -2 -50 0 -16 2 -5 4 22 4 28 0 40 -2 28 -4z m-1903 -43
c0 -5 -4 -10 -10 -10 -5 0 -10 5 -10 10 0 6 5 10 10 10 6 0 10 -4 10 -10z
m2210 -45 c0 -9 -40 -45 -49 -45 -7 0 -21 23 -21 35 0 2 12 6 28 8 15 2 30 5
35 6 4 0 7 -1 7 -4z m67 -17 c-2 -25 -34 -40 -67 -31 -28 7 -25 23 4 23 13 0
29 7 36 15 18 22 30 18 27 -7z m533 12 c0 -5 -9 -10 -21 -10 -11 0 -17 5 -14
10 3 6 13 10 21 10 8 0 14 -4 14 -10z m-2250 -10 c0 -5 -10 -10 -22 -9 -22 0
-22 1 -3 9 11 5 21 9 23 9 1 1 2 -3 2 -9z m1185 0 c3 -6 -1 -7 -9 -4 -18 7
-21 14 -7 14 6 0 13 -4 16 -10z m993 -11 c-7 -5 -24 -8 -38 -8 -17 1 -19 3 -7
6 9 2 17 8 17 13 0 4 9 6 21 3 16 -4 17 -8 7 -14z m-808 -9 c0 -5 -9 -10 -21
-10 -11 0 -17 5 -14 10 3 6 13 10 21 10 8 0 14 -4 14 -10z m425 -20 c3 -5 1
-10 -4 -10 -6 0 -11 5 -11 10 0 6 2 10 4 10 3 0 8 -4 11 -10z m-2135 -10 c0
-5 -4 -10 -10 -10 -5 0 -10 5 -10 10 0 6 5 10 10 10 6 0 10 -4 10 -10z m1744
-22 c-3 -4 -14 -8 -25 -8 -18 0 -18 1 -1 18 16 17 37 9 26 -10z m741 22 c13
-5 14 -9 5 -9 -8 0 -24 4 -35 9 -13 5 -14 9 -5 9 8 0 24 -4 35 -9z m-1650 -21
c8 -25 3 -31 -18 -24 -12 5 -15 19 -8 43 4 10 21 -2 26 -19z m109 -10 c-8 -14
-34 -11 -34 4 0 8 3 17 7 20 9 9 34 -13 27 -24z m46 17 c0 -15 -18 -31 -26
-23 -7 7 7 37 17 37 5 0 9 -6 9 -14z m30 4 c0 -5 -5 -10 -11 -10 -5 0 -7 5 -4
10 3 6 8 10 11 10 2 0 4 -4 4 -10z m920 0 c0 -5 -2 -10 -4 -10 -3 0 -8 5 -11
10 -3 6 -1 10 4 10 6 0 11 -4 11 -10z m304 -5 c8 -9 19 -15 23 -14 24 4 36 -2
26 -12 -7 -7 -20 -8 -34 -3 -13 5 -31 9 -39 9 -8 1 -33 5 -55 10 -33 7 -36 9
-20 16 33 13 83 10 99 -6z m311 -15 c-3 -5 -10 -10 -16 -10 -5 0 -9 5 -9 10 0
6 7 10 16 10 8 0 12 -4 9 -10z m-1525 -4 c0 -9 -30 -14 -35 -6 -4 6 3 10 14
10 12 0 21 -2 21 -4z m-229 -34 c-7 -2 -18 1 -23 6 -8 8 -4 9 13 5 13 -4 18
-8 10 -11z m792 1 c-7 -2 -21 -2 -30 0 -10 3 -4 5 12 5 17 0 24 -2 18 -5z
m487 -3 c0 -5 -13 -8 -29 -6 -20 2 -28 -1 -24 -9 2 -7 0 -16 -6 -20 -6 -3 -14
1 -18 10 -3 10 0 21 8 26 19 12 69 11 69 -1z m-1805 -20 c3 -5 1 -10 -4 -10
-6 0 -11 5 -11 10 0 6 2 10 4 10 3 0 8 -4 11 -10z m1843 -6 c12 -4 22 -13 22
-20 0 -17 -2 -17 -35 -2 -41 19 -33 34 13 22z m-573 -14 c-3 -5 -13 -10 -21
-10 -8 0 -14 5 -14 10 0 6 9 10 21 10 11 0 17 -4 14 -10z m85 -10 c0 -4 -9 -6
-21 -3 -15 4 -17 8 -8 14 14 8 29 3 29 -11z m424 -28 c-18 -10 -29 -10 -45 -1
-12 6 -30 9 -40 6 -10 -3 -19 -1 -19 3 0 4 29 7 64 7 59 -2 63 -3 40 -15z
m-384 4 c0 -2 -9 -6 -20 -9 -11 -3 -18 -1 -14 4 5 9 34 13 34 5z m457 -2 c-3
-3 -12 -4 -19 -1 -8 3 -5 6 6 6 11 1 17 -2 13 -5z m-387 -14 c0 -13 -30 -13
-50 0 -11 7 -7 10 18 10 17 0 32 -4 32 -10z m-1525 -30 c-3 -5 -16 -10 -28 -9
-20 1 -20 2 3 9 14 4 26 8 28 9 2 1 0 -3 -3 -9z m920 0 c3 -5 -1 -10 -9 -10
-9 0 -16 5 -16 10 0 6 4 10 9 10 6 0 13 -4 16 -10z m142 4 c-3 -3 -12 -4 -19
-1 -8 3 -5 6 6 6 11 1 17 -2 13 -5z m953 -4 c0 -5 -10 -10 -22 -10 -19 0 -20
2 -8 10 19 13 30 13 30 0z m-2435 -10 c3 -5 2 -10 -4 -10 -5 0 -13 5 -16 10
-3 6 -2 10 4 10 5 0 13 -4 16 -10z m1205 6 c0 -11 -19 -15 -25 -6 -3 5 1 10 9
10 9 0 16 -2 16 -4z m-124 -21 c-13 -10 -15 -15 -6 -15 7 0 11 -3 7 -6 -9 -9
-48 6 -41 17 3 5 9 7 13 5 4 -3 13 -1 21 5 23 14 27 10 6 -6z m434 5 c0 -5 -5
-10 -11 -10 -5 0 -7 5 -4 10 3 6 8 10 11 10 2 0 4 -4 4 -10z m-581 -13 c10
-13 -2 -15 -39 -8 -4 1 21 20 26 21 1 0 7 -6 13 -13z m1166 -107 c-3 -5 -10
-10 -16 -10 -5 0 -9 5 -9 10 0 6 7 10 16 10 8 0 12 -4 9 -10z"/>
<path d="M1365 2590 c3 -5 8 -10 11 -10 2 0 4 5 4 10 0 6 -5 10 -11 10 -5 0
-7 -4 -4 -10z"/>
<path d="M1311 2352 c-8 -15 -6 -18 15 -17 14 0 30 8 35 18 8 14 6 17 -15 17
-14 0 -30 -8 -35 -18z"/>
<path d="M1516 2291 c-3 -5 1 -14 8 -21 12 -9 17 -7 26 9 9 18 8 21 -9 21 -11
0 -22 -4 -25 -9z"/>
<path d="M1520 2221 c0 -6 5 -13 10 -16 6 -4 8 -11 5 -16 -4 -5 -1 -9 4 -9 6
0 11 11 11 25 0 16 -6 25 -15 25 -8 0 -15 -4 -15 -9z"/>
<path d="M1485 2010 c3 -5 8 -10 11 -10 2 0 4 5 4 10 0 6 -5 10 -11 10 -5 0
-7 -4 -4 -10z"/>
<path d="M1455 1990 c3 -5 8 -10 11 -10 2 0 4 5 4 10 0 6 -5 10 -11 10 -5 0
-7 -4 -4 -10z"/>
<path d="M626 1653 c-3 -3 1 -12 9 -20 8 -8 15 -23 15 -34 0 -12 7 -19 19 -19
27 0 37 21 16 32 -9 6 -25 18 -35 28 -10 10 -21 16 -24 13z"/>
<path d="M994 1446 c11 -9 29 -16 40 -15 17 1 16 2 -6 9 -14 4 -32 11 -40 15
-7 3 -4 -1 6 -9z"/>
<path d="M1800 1390 c0 -6 7 -10 15 -10 8 0 15 2 15 4 0 2 -7 6 -15 10 -8 3
-15 1 -15 -4z"/>
<path d="M758 1324 c5 -29 18 -39 28 -23 4 8 3 9 -4 5 -7 -4 -12 -1 -12 9 0 9
5 13 10 10 6 -3 10 -4 10 -1 0 3 -8 10 -19 15 -16 9 -17 7 -13 -15z"/>
<path d="M888 1203 c7 -3 16 -2 19 1 4 3 -2 6 -13 5 -11 0 -14 -3 -6 -6z"/>
<path d="M870 1176 c0 -2 7 -7 16 -10 8 -3 12 -2 9 4 -6 10 -25 14 -25 6z"/>
<path d="M950 1041 c0 -6 4 -13 10 -16 6 -3 7 1 4 9 -7 18 -14 21 -14 7z"/>
<path d="M1090 880 c0 -5 5 -10 11 -10 5 0 7 5 4 10 -3 6 -8 10 -11 10 -2 0
-4 -4 -4 -10z"/>
<path d="M1112 758 c5 -14 68 -51 68 -39 0 4 -11 14 -25 21 -14 7 -25 17 -25
22 0 4 -5 8 -11 8 -6 0 -9 -5 -7 -12z"/>
<path d="M1230 713 c0 -11 21 -33 32 -33 4 0 8 8 8 17 0 9 -3 13 -7 10 -3 -4
-12 -2 -20 4 -7 6 -13 7 -13 2z"/>
<path d="M1210 690 c0 -5 5 -10 11 -10 5 0 7 5 4 10 -3 6 -8 10 -11 10 -2 0
-4 -4 -4 -10z"/>
<path d="M2394 2229 c-3 -6 -1 -16 5 -22 8 -8 11 -5 11 11 0 24 -5 28 -16 11z"/>
<path d="M1325 580 c3 -5 8 -10 11 -10 2 0 4 5 4 10 0 6 -5 10 -11 10 -5 0 -7
-4 -4 -10z"/>
<path d="M1367 2985 c19 -14 26 -14 55 -1 l33 14 -55 1 c-51 1 -53 0 -33 -14z"/>
<path d="M0 15 c0 -12 13 -15 63 -15 48 1 58 3 44 11 -10 6 -31 8 -46 4 -17
-3 -32 -2 -36 4 -9 16 -25 13 -25 -4z"/>
</g>
</svg>
